<mxfile host="app.diagrams.net" modified="2023-12-08T22:10:41.135Z" agent="Mozilla/5.0 (Windows NT 10.0; Win64; x64) AppleWebKit/537.36 (KHTML, like Gecko) Chrome/120.0.0.0 Safari/537.36" etag="Oz-mHwXDwW_LBt8EJQXs" version="22.1.7" type="device">
  <diagram name="Page-1" id="2YBvvXClWsGukQMizWep">
    <mxGraphModel dx="1562" dy="748" grid="1" gridSize="10" guides="1" tooltips="1" connect="1" arrows="1" fold="1" page="1" pageScale="1" pageWidth="850" pageHeight="1100" math="0" shadow="0">
      <root>
        <mxCell id="0" />
        <mxCell id="1" parent="0" />
        <mxCell id="xNlqgEtzLe3WfWEDsrTl-1" value="CKB platform" style="shape=umlLifeline;perimeter=lifelinePerimeter;whiteSpace=wrap;html=1;container=0;dropTarget=0;collapsible=0;recursiveResize=0;outlineConnect=0;portConstraint=eastwest;newEdgeStyle={&quot;edgeStyle&quot;:&quot;elbowEdgeStyle&quot;,&quot;elbow&quot;:&quot;vertical&quot;,&quot;curved&quot;:0,&quot;rounded&quot;:0};" vertex="1" parent="1">
          <mxGeometry x="80" y="40" width="100" height="700" as="geometry" />
        </mxCell>
        <mxCell id="xNlqgEtzLe3WfWEDsrTl-5" value="" style="html=1;points=[];perimeter=orthogonalPerimeter;outlineConnect=0;targetShapes=umlLifeline;portConstraint=eastwest;newEdgeStyle={&quot;edgeStyle&quot;:&quot;elbowEdgeStyle&quot;,&quot;elbow&quot;:&quot;vertical&quot;,&quot;curved&quot;:0,&quot;rounded&quot;:0};" vertex="1" parent="xNlqgEtzLe3WfWEDsrTl-1">
          <mxGeometry x="46" y="260" width="10" height="430" as="geometry" />
        </mxCell>
        <mxCell id="xNlqgEtzLe3WfWEDsrTl-10" value="&lt;font style=&quot;font-size: 9px;&quot;&gt;Student&lt;/font&gt;" style="shape=umlActor;verticalLabelPosition=bottom;verticalAlign=top;html=1;outlineConnect=0;" vertex="1" parent="1">
          <mxGeometry x="-100" y="40" width="20" height="40" as="geometry" />
        </mxCell>
        <mxCell id="xNlqgEtzLe3WfWEDsrTl-11" value="" style="endArrow=none;dashed=1;html=1;rounded=0;" edge="1" parent="1" source="xNlqgEtzLe3WfWEDsrTl-12">
          <mxGeometry width="50" height="50" relative="1" as="geometry">
            <mxPoint x="-90" y="350" as="sourcePoint" />
            <mxPoint x="-90" y="100" as="targetPoint" />
          </mxGeometry>
        </mxCell>
        <mxCell id="xNlqgEtzLe3WfWEDsrTl-12" value="" style="html=1;points=[];perimeter=orthogonalPerimeter;outlineConnect=0;targetShapes=umlLifeline;portConstraint=eastwest;newEdgeStyle={&quot;edgeStyle&quot;:&quot;elbowEdgeStyle&quot;,&quot;elbow&quot;:&quot;vertical&quot;,&quot;curved&quot;:0,&quot;rounded&quot;:0};" vertex="1" parent="1">
          <mxGeometry x="-95" y="110" width="10" height="690" as="geometry" />
        </mxCell>
        <mxCell id="xNlqgEtzLe3WfWEDsrTl-13" value="&lt;font style=&quot;font-size: 9px;&quot;&gt;1 : login(credentials)&lt;/font&gt;" style="html=1;verticalAlign=bottom;endArrow=block;edgeStyle=elbowEdgeStyle;elbow=horizontal;curved=0;rounded=0;" edge="1" parent="1" source="xNlqgEtzLe3WfWEDsrTl-12" target="xNlqgEtzLe3WfWEDsrTl-29">
          <mxGeometry x="0.5366" relative="1" as="geometry">
            <mxPoint x="-50" y="110" as="sourcePoint" />
            <Array as="points">
              <mxPoint x="30" y="110" />
            </Array>
            <mxPoint x="320" y="110" as="targetPoint" />
            <mxPoint as="offset" />
          </mxGeometry>
        </mxCell>
        <mxCell id="xNlqgEtzLe3WfWEDsrTl-14" value="&lt;font style=&quot;font-size: 9px;&quot;&gt;2 : showPage(homePage)&lt;/font&gt;" style="html=1;verticalAlign=bottom;endArrow=openThin;dashed=1;endSize=8;edgeStyle=elbowEdgeStyle;elbow=vertical;curved=0;rounded=0;endFill=0;" edge="1" parent="1" source="xNlqgEtzLe3WfWEDsrTl-29" target="xNlqgEtzLe3WfWEDsrTl-12">
          <mxGeometry x="-0.5366" relative="1" as="geometry">
            <mxPoint x="-50" y="140" as="targetPoint" />
            <Array as="points">
              <mxPoint x="5" y="140" />
            </Array>
            <mxPoint x="125" y="140" as="sourcePoint" />
            <mxPoint as="offset" />
          </mxGeometry>
        </mxCell>
        <mxCell id="xNlqgEtzLe3WfWEDsrTl-15" value="&lt;font style=&quot;font-size: 9px;&quot;&gt;3&amp;nbsp;: request(repository)&lt;/font&gt;" style="html=1;verticalAlign=bottom;endArrow=block;edgeStyle=elbowEdgeStyle;elbow=vertical;curved=0;rounded=0;" edge="1" parent="1" source="xNlqgEtzLe3WfWEDsrTl-12" target="xNlqgEtzLe3WfWEDsrTl-3">
          <mxGeometry relative="1" as="geometry">
            <mxPoint x="-80" y="190" as="sourcePoint" />
            <Array as="points">
              <mxPoint x="30" y="170" />
            </Array>
            <mxPoint x="90" y="200" as="targetPoint" />
          </mxGeometry>
        </mxCell>
        <mxCell id="xNlqgEtzLe3WfWEDsrTl-16" value="&lt;font style=&quot;font-size: 9px;&quot;&gt;4 : showPage(repositoryPage)&lt;/font&gt;" style="html=1;verticalAlign=bottom;endArrow=openThin;dashed=1;endSize=8;edgeStyle=elbowEdgeStyle;elbow=vertical;curved=0;rounded=0;endFill=0;" edge="1" parent="1" source="xNlqgEtzLe3WfWEDsrTl-3" target="xNlqgEtzLe3WfWEDsrTl-12">
          <mxGeometry relative="1" as="geometry">
            <mxPoint x="-85" y="230" as="targetPoint" />
            <Array as="points">
              <mxPoint x="120" y="200" />
            </Array>
            <mxPoint x="125" y="230" as="sourcePoint" />
          </mxGeometry>
        </mxCell>
        <mxCell id="xNlqgEtzLe3WfWEDsrTl-19" value="&lt;font style=&quot;font-size: 9px;&quot;&gt;5 : upload(newSolution)&lt;/font&gt;" style="html=1;verticalAlign=bottom;endArrow=block;edgeStyle=elbowEdgeStyle;elbow=horizontal;curved=0;rounded=0;" edge="1" parent="1" target="xNlqgEtzLe3WfWEDsrTl-4">
          <mxGeometry relative="1" as="geometry">
            <mxPoint x="-85" y="230" as="sourcePoint" />
            <Array as="points">
              <mxPoint x="30" y="230" />
            </Array>
            <mxPoint x="125" y="230" as="targetPoint" />
            <mxPoint as="offset" />
          </mxGeometry>
        </mxCell>
        <mxCell id="xNlqgEtzLe3WfWEDsrTl-20" value="&lt;font style=&quot;font-size: 9px;&quot;&gt;6 : sendMessage(confirmation)&lt;/font&gt;" style="html=1;verticalAlign=bottom;endArrow=open;endSize=8;edgeStyle=elbowEdgeStyle;elbow=vertical;curved=0;rounded=0;endFill=0;" edge="1" parent="1" source="xNlqgEtzLe3WfWEDsrTl-4" target="xNlqgEtzLe3WfWEDsrTl-12">
          <mxGeometry relative="1" as="geometry">
            <mxPoint x="-80" y="260" as="targetPoint" />
            <Array as="points">
              <mxPoint x="20" y="270" />
            </Array>
            <mxPoint x="130" y="260" as="sourcePoint" />
          </mxGeometry>
        </mxCell>
        <mxCell id="xNlqgEtzLe3WfWEDsrTl-27" value="&lt;font style=&quot;font-size: 9px;&quot;&gt;GitHub&lt;/font&gt;" style="shape=umlActor;verticalLabelPosition=bottom;verticalAlign=top;html=1;outlineConnect=0;" vertex="1" parent="1">
          <mxGeometry x="320" y="40" width="20" height="40" as="geometry" />
        </mxCell>
        <mxCell id="xNlqgEtzLe3WfWEDsrTl-28" value="" style="endArrow=none;dashed=1;html=1;rounded=0;" edge="1" parent="1" source="xNlqgEtzLe3WfWEDsrTl-29">
          <mxGeometry width="50" height="50" relative="1" as="geometry">
            <mxPoint x="330" y="670" as="sourcePoint" />
            <mxPoint x="330" y="100" as="targetPoint" />
          </mxGeometry>
        </mxCell>
        <mxCell id="xNlqgEtzLe3WfWEDsrTl-30" value="" style="endArrow=none;dashed=1;html=1;rounded=0;" edge="1" parent="1" source="xNlqgEtzLe3WfWEDsrTl-3" target="xNlqgEtzLe3WfWEDsrTl-29">
          <mxGeometry width="50" height="50" relative="1" as="geometry">
            <mxPoint x="330" y="670" as="sourcePoint" />
            <mxPoint x="330" y="100" as="targetPoint" />
          </mxGeometry>
        </mxCell>
        <mxCell id="xNlqgEtzLe3WfWEDsrTl-29" value="" style="html=1;points=[];perimeter=orthogonalPerimeter;outlineConnect=0;targetShapes=umlLifeline;portConstraint=eastwest;newEdgeStyle={&quot;edgeStyle&quot;:&quot;elbowEdgeStyle&quot;,&quot;elbow&quot;:&quot;vertical&quot;,&quot;curved&quot;:0,&quot;rounded&quot;:0};" vertex="1" parent="1">
          <mxGeometry x="325" y="110" width="10" height="30" as="geometry" />
        </mxCell>
        <mxCell id="xNlqgEtzLe3WfWEDsrTl-31" value="" style="endArrow=none;dashed=1;html=1;rounded=0;" edge="1" parent="1" source="xNlqgEtzLe3WfWEDsrTl-4" target="xNlqgEtzLe3WfWEDsrTl-3">
          <mxGeometry width="50" height="50" relative="1" as="geometry">
            <mxPoint x="330" y="670" as="sourcePoint" />
            <mxPoint x="330" y="140" as="targetPoint" />
          </mxGeometry>
        </mxCell>
        <mxCell id="xNlqgEtzLe3WfWEDsrTl-3" value="" style="html=1;points=[];perimeter=orthogonalPerimeter;outlineConnect=0;targetShapes=umlLifeline;portConstraint=eastwest;newEdgeStyle={&quot;edgeStyle&quot;:&quot;elbowEdgeStyle&quot;,&quot;elbow&quot;:&quot;vertical&quot;,&quot;curved&quot;:0,&quot;rounded&quot;:0};" vertex="1" parent="1">
          <mxGeometry x="325" y="170" width="10" height="30" as="geometry" />
        </mxCell>
        <mxCell id="xNlqgEtzLe3WfWEDsrTl-32" value="" style="endArrow=none;dashed=1;html=1;rounded=0;" edge="1" parent="1">
          <mxGeometry width="50" height="50" relative="1" as="geometry">
            <mxPoint x="330" y="810" as="sourcePoint" />
            <mxPoint x="330" y="790" as="targetPoint" />
          </mxGeometry>
        </mxCell>
        <mxCell id="xNlqgEtzLe3WfWEDsrTl-4" value="" style="html=1;points=[];perimeter=orthogonalPerimeter;outlineConnect=0;targetShapes=umlLifeline;portConstraint=eastwest;newEdgeStyle={&quot;edgeStyle&quot;:&quot;elbowEdgeStyle&quot;,&quot;elbow&quot;:&quot;vertical&quot;,&quot;curved&quot;:0,&quot;rounded&quot;:0};" vertex="1" parent="1">
          <mxGeometry x="325" y="230" width="10" height="560" as="geometry" />
        </mxCell>
        <mxCell id="xNlqgEtzLe3WfWEDsrTl-34" value="&lt;font style=&quot;font-size: 9px;&quot;&gt;7 : GitHubActions(solution)&lt;/font&gt;" style="html=1;verticalAlign=bottom;endArrow=block;endSize=6;edgeStyle=elbowEdgeStyle;elbow=vertical;curved=0;rounded=0;endFill=1;" edge="1" parent="1" source="xNlqgEtzLe3WfWEDsrTl-4" target="xNlqgEtzLe3WfWEDsrTl-5">
          <mxGeometry relative="1" as="geometry">
            <mxPoint x="-85" y="290" as="targetPoint" />
            <Array as="points">
              <mxPoint x="190" y="300" />
            </Array>
            <mxPoint x="325" y="290" as="sourcePoint" />
          </mxGeometry>
        </mxCell>
        <mxCell id="xNlqgEtzLe3WfWEDsrTl-17" value="&lt;p style=&quot;line-height: 120%; font-size: 9px;&quot;&gt;&lt;font style=&quot;font-size: 9px;&quot;&gt;&lt;b&gt;alt&lt;/b&gt;: errorHappened == false&lt;/font&gt;&lt;/p&gt;" style="shape=umlFrame;whiteSpace=wrap;html=1;pointerEvents=0;width=110;height=30;verticalAlign=middle;horizontal=1;labelPosition=center;verticalLabelPosition=middle;align=center;" vertex="1" parent="1">
          <mxGeometry x="-210" y="240" width="650" height="570" as="geometry" />
        </mxCell>
        <mxCell id="xNlqgEtzLe3WfWEDsrTl-36" value="" style="html=1;points=[[0,0,0,0,5],[0,1,0,0,-5],[1,0,0,0,5],[1,1,0,0,-5]];perimeter=orthogonalPerimeter;outlineConnect=0;targetShapes=umlLifeline;portConstraint=eastwest;newEdgeStyle={&quot;curved&quot;:0,&quot;rounded&quot;:0};" vertex="1" parent="1">
          <mxGeometry x="130" y="375" width="10" height="25" as="geometry" />
        </mxCell>
        <mxCell id="xNlqgEtzLe3WfWEDsrTl-37" value="&lt;font style=&quot;font-size: 9px;&quot;&gt;8 : solutionTesting(tests)&lt;/font&gt;" style="html=1;align=left;spacingLeft=2;endArrow=block;rounded=0;edgeStyle=orthogonalEdgeStyle;curved=0;rounded=0;" edge="1" parent="1" target="xNlqgEtzLe3WfWEDsrTl-36">
          <mxGeometry relative="1" as="geometry">
            <mxPoint x="135" y="360" as="sourcePoint" />
            <Array as="points">
              <mxPoint x="160" y="360" />
              <mxPoint x="160" y="375" />
            </Array>
          </mxGeometry>
        </mxCell>
        <mxCell id="xNlqgEtzLe3WfWEDsrTl-38" value="&lt;p style=&quot;line-height: 120%; font-size: 9px;&quot;&gt;&lt;font style=&quot;font-size: 9px;&quot;&gt;&lt;b&gt;alt&lt;/b&gt;: majorIssueGenerated== false&lt;/font&gt;&lt;/p&gt;" style="shape=umlFrame;whiteSpace=wrap;html=1;pointerEvents=0;width=100;height=40;verticalAlign=middle;horizontal=1;labelPosition=center;verticalLabelPosition=middle;align=center;" vertex="1" parent="1">
          <mxGeometry x="-200" y="410" width="630" height="330" as="geometry" />
        </mxCell>
        <mxCell id="xNlqgEtzLe3WfWEDsrTl-40" value="" style="html=1;points=[[0,0,0,0,5],[0,1,0,0,-5],[1,0,0,0,5],[1,1,0,0,-5]];perimeter=orthogonalPerimeter;outlineConnect=0;targetShapes=umlLifeline;portConstraint=eastwest;newEdgeStyle={&quot;curved&quot;:0,&quot;rounded&quot;:0};" vertex="1" parent="1">
          <mxGeometry x="130" y="435" width="10" height="25" as="geometry" />
        </mxCell>
        <mxCell id="xNlqgEtzLe3WfWEDsrTl-41" value="&lt;font style=&quot;font-size: 9px;&quot;&gt;9 : giveAScore(testsResults)&lt;/font&gt;" style="html=1;align=left;spacingLeft=2;endArrow=block;rounded=0;edgeStyle=orthogonalEdgeStyle;curved=0;rounded=0;" edge="1" parent="1" target="xNlqgEtzLe3WfWEDsrTl-40">
          <mxGeometry relative="1" as="geometry">
            <mxPoint x="135" y="420" as="sourcePoint" />
            <Array as="points">
              <mxPoint x="160" y="420" />
              <mxPoint x="160" y="435" />
            </Array>
          </mxGeometry>
        </mxCell>
        <mxCell id="xNlqgEtzLe3WfWEDsrTl-42" value="" style="html=1;points=[[0,0,0,0,5],[0,1,0,0,-5],[1,0,0,0,5],[1,1,0,0,-5]];perimeter=orthogonalPerimeter;outlineConnect=0;targetShapes=umlLifeline;portConstraint=eastwest;newEdgeStyle={&quot;curved&quot;:0,&quot;rounded&quot;:0};" vertex="1" parent="1">
          <mxGeometry x="130" y="485" width="10" height="25" as="geometry" />
        </mxCell>
        <mxCell id="xNlqgEtzLe3WfWEDsrTl-43" value="&lt;font style=&quot;font-size: 9px;&quot;&gt;10 : updateGroupScore(tournamentId,&lt;br&gt;&lt;span style=&quot;white-space: pre;&quot;&gt;&#x9;&lt;/span&gt;BattleId)&lt;/font&gt;" style="html=1;align=left;spacingLeft=2;endArrow=block;rounded=0;edgeStyle=orthogonalEdgeStyle;curved=0;rounded=0;" edge="1" parent="1" target="xNlqgEtzLe3WfWEDsrTl-42">
          <mxGeometry relative="1" as="geometry">
            <mxPoint x="135" y="470" as="sourcePoint" />
            <Array as="points">
              <mxPoint x="160" y="470" />
              <mxPoint x="160" y="485" />
            </Array>
          </mxGeometry>
        </mxCell>
        <mxCell id="xNlqgEtzLe3WfWEDsrTl-44" value="&lt;font style=&quot;font-size: 9px;&quot;&gt;11 : sendMessage(testingSuccessful)&lt;/font&gt;" style="html=1;verticalAlign=bottom;endArrow=open;endSize=8;edgeStyle=elbowEdgeStyle;elbow=vertical;curved=0;rounded=0;endFill=0;" edge="1" parent="1" target="xNlqgEtzLe3WfWEDsrTl-49">
          <mxGeometry x="-0.2741" relative="1" as="geometry">
            <mxPoint x="295" y="540" as="targetPoint" />
            <Array as="points">
              <mxPoint x="380" y="540" />
            </Array>
            <mxPoint x="136" y="540" as="sourcePoint" />
            <mxPoint as="offset" />
          </mxGeometry>
        </mxCell>
        <mxCell id="xNlqgEtzLe3WfWEDsrTl-45" value="&lt;p style=&quot;line-height: 120%;&quot;&gt;&lt;font style=&quot;font-size: 10px;&quot;&gt;&lt;b&gt;loop foreach&lt;/b&gt;: student != &#39;Student&#39;&amp;nbsp;&lt;b&gt;in &lt;/b&gt;group&lt;/font&gt;&lt;/p&gt;" style="shape=umlFrame;whiteSpace=wrap;html=1;pointerEvents=0;width=100;height=50;verticalAlign=middle;horizontal=1;labelPosition=center;verticalLabelPosition=middle;align=center;" vertex="1" parent="1">
          <mxGeometry x="20" y="520" width="400" height="50" as="geometry" />
        </mxCell>
        <mxCell id="xNlqgEtzLe3WfWEDsrTl-46" value="&lt;font style=&quot;font-size: 9px;&quot;&gt;Another student&lt;/font&gt;" style="shape=umlActor;verticalLabelPosition=bottom;verticalAlign=top;html=1;outlineConnect=0;" vertex="1" parent="1">
          <mxGeometry x="390" y="40" width="20" height="40" as="geometry" />
        </mxCell>
        <mxCell id="xNlqgEtzLe3WfWEDsrTl-47" value="" style="endArrow=none;dashed=1;html=1;rounded=0;" edge="1" parent="1" source="xNlqgEtzLe3WfWEDsrTl-49">
          <mxGeometry width="50" height="50" relative="1" as="geometry">
            <mxPoint x="399.58" y="460" as="sourcePoint" />
            <mxPoint x="399.58" y="100" as="targetPoint" />
          </mxGeometry>
        </mxCell>
        <mxCell id="xNlqgEtzLe3WfWEDsrTl-48" value="" style="endArrow=none;dashed=1;html=1;rounded=0;" edge="1" parent="1" target="xNlqgEtzLe3WfWEDsrTl-49">
          <mxGeometry width="50" height="50" relative="1" as="geometry">
            <mxPoint x="400" y="810" as="sourcePoint" />
            <mxPoint x="399.58" y="150" as="targetPoint" />
          </mxGeometry>
        </mxCell>
        <mxCell id="xNlqgEtzLe3WfWEDsrTl-49" value="" style="html=1;points=[];perimeter=orthogonalPerimeter;outlineConnect=0;targetShapes=umlLifeline;portConstraint=eastwest;newEdgeStyle={&quot;edgeStyle&quot;:&quot;elbowEdgeStyle&quot;,&quot;elbow&quot;:&quot;vertical&quot;,&quot;curved&quot;:0,&quot;rounded&quot;:0};" vertex="1" parent="1">
          <mxGeometry x="395" y="540" width="10" height="15" as="geometry" />
        </mxCell>
        <mxCell id="xNlqgEtzLe3WfWEDsrTl-52" value="&lt;font style=&quot;font-size: 9px;&quot;&gt;12 : sendMessage(testingSuccessful)&lt;/font&gt;" style="html=1;verticalAlign=bottom;endArrow=openThin;endSize=8;edgeStyle=elbowEdgeStyle;elbow=vertical;curved=0;rounded=0;endFill=0;dashed=1;" edge="1" parent="1">
          <mxGeometry relative="1" as="geometry">
            <mxPoint x="-85" y="599" as="targetPoint" />
            <Array as="points">
              <mxPoint x="60" y="599" />
            </Array>
            <mxPoint x="126" y="598.9999999999998" as="sourcePoint" />
          </mxGeometry>
        </mxCell>
        <mxCell id="xNlqgEtzLe3WfWEDsrTl-54" value="[then]" style="text;html=1;strokeColor=none;fillColor=none;align=center;verticalAlign=middle;whiteSpace=wrap;rounded=0;fontSize=10;" vertex="1" parent="1">
          <mxGeometry x="-190" y="280" width="35" height="10" as="geometry" />
        </mxCell>
        <mxCell id="xNlqgEtzLe3WfWEDsrTl-55" value="[then]" style="text;html=1;strokeColor=none;fillColor=none;align=center;verticalAlign=middle;whiteSpace=wrap;rounded=0;fontSize=10;" vertex="1" parent="1">
          <mxGeometry x="-170" y="460" width="35" height="10" as="geometry" />
        </mxCell>
        <mxCell id="xNlqgEtzLe3WfWEDsrTl-56" value="[else]" style="text;html=1;strokeColor=none;fillColor=none;align=center;verticalAlign=middle;whiteSpace=wrap;rounded=0;fontSize=10;" vertex="1" parent="1">
          <mxGeometry x="-170" y="630" width="35" height="10" as="geometry" />
        </mxCell>
        <mxCell id="xNlqgEtzLe3WfWEDsrTl-57" value="[else]" style="text;html=1;strokeColor=none;fillColor=none;align=center;verticalAlign=middle;whiteSpace=wrap;rounded=0;fontSize=10;" vertex="1" parent="1">
          <mxGeometry x="-190" y="780" width="35" height="10" as="geometry" />
        </mxCell>
        <mxCell id="xNlqgEtzLe3WfWEDsrTl-58" value="&lt;font style=&quot;font-size: 9px;&quot;&gt;13 : sendMessage(error)&lt;/font&gt;" style="html=1;verticalAlign=bottom;endArrow=open;endSize=8;edgeStyle=elbowEdgeStyle;elbow=vertical;curved=0;rounded=0;endFill=0;" edge="1" parent="1" target="xNlqgEtzLe3WfWEDsrTl-60">
          <mxGeometry x="-0.4286" relative="1" as="geometry">
            <mxPoint x="295" y="670" as="targetPoint" />
            <Array as="points">
              <mxPoint x="370" y="670" />
            </Array>
            <mxPoint x="136" y="670" as="sourcePoint" />
            <mxPoint as="offset" />
          </mxGeometry>
        </mxCell>
        <mxCell id="xNlqgEtzLe3WfWEDsrTl-59" value="&lt;p style=&quot;line-height: 120%;&quot;&gt;&lt;font style=&quot;font-size: 10px;&quot;&gt;&lt;b&gt;loop foreach&lt;/b&gt;: student != &#39;Student&#39;&amp;nbsp;&lt;b&gt;in &lt;/b&gt;group&lt;/font&gt;&lt;/p&gt;" style="shape=umlFrame;whiteSpace=wrap;html=1;pointerEvents=0;width=100;height=50;verticalAlign=middle;horizontal=1;labelPosition=center;verticalLabelPosition=middle;align=center;" vertex="1" parent="1">
          <mxGeometry x="20" y="650" width="400" height="50" as="geometry" />
        </mxCell>
        <mxCell id="xNlqgEtzLe3WfWEDsrTl-60" value="" style="html=1;points=[];perimeter=orthogonalPerimeter;outlineConnect=0;targetShapes=umlLifeline;portConstraint=eastwest;newEdgeStyle={&quot;edgeStyle&quot;:&quot;elbowEdgeStyle&quot;,&quot;elbow&quot;:&quot;vertical&quot;,&quot;curved&quot;:0,&quot;rounded&quot;:0};" vertex="1" parent="1">
          <mxGeometry x="395" y="670" width="10" height="15" as="geometry" />
        </mxCell>
        <mxCell id="xNlqgEtzLe3WfWEDsrTl-62" value="&lt;font style=&quot;font-size: 9px;&quot;&gt;14 : sendMessage(error)&lt;/font&gt;" style="html=1;verticalAlign=bottom;endArrow=openThin;endSize=8;edgeStyle=elbowEdgeStyle;elbow=vertical;curved=0;rounded=0;endFill=0;dashed=1;" edge="1" parent="1" source="xNlqgEtzLe3WfWEDsrTl-5">
          <mxGeometry relative="1" as="geometry">
            <mxPoint x="-85" y="730" as="targetPoint" />
            <Array as="points">
              <mxPoint x="60" y="730" />
            </Array>
            <mxPoint x="126" y="720" as="sourcePoint" />
          </mxGeometry>
        </mxCell>
        <mxCell id="xNlqgEtzLe3WfWEDsrTl-65" value="" style="endArrow=none;dashed=1;html=1;rounded=0;strokeWidth=2;exitX=0.003;exitY=0.653;exitDx=0;exitDy=0;exitPerimeter=0;" edge="1" parent="1">
          <mxGeometry width="50" height="50" relative="1" as="geometry">
            <mxPoint x="-210" y="760" as="sourcePoint" />
            <mxPoint x="440" y="760" as="targetPoint" />
          </mxGeometry>
        </mxCell>
        <mxCell id="xNlqgEtzLe3WfWEDsrTl-66" value="&lt;font style=&quot;font-size: 9px;&quot;&gt;15 : sendMessage(githubError)&lt;/font&gt;" style="html=1;verticalAlign=bottom;endArrow=openThin;dashed=1;endSize=8;edgeStyle=elbowEdgeStyle;elbow=vertical;curved=0;rounded=0;endFill=0;" edge="1" parent="1">
          <mxGeometry x="-0.0488" relative="1" as="geometry">
            <mxPoint x="-85" y="790" as="targetPoint" />
            <Array as="points">
              <mxPoint x="140" y="790" />
            </Array>
            <mxPoint x="325" y="790" as="sourcePoint" />
            <mxPoint as="offset" />
          </mxGeometry>
        </mxCell>
        <mxCell id="xNlqgEtzLe3WfWEDsrTl-67" value="" style="endArrow=none;dashed=1;html=1;rounded=0;" edge="1" parent="1">
          <mxGeometry width="50" height="50" relative="1" as="geometry">
            <mxPoint x="-90.5" y="810" as="sourcePoint" />
            <mxPoint x="-90.5" y="800" as="targetPoint" />
          </mxGeometry>
        </mxCell>
        <mxCell id="xNlqgEtzLe3WfWEDsrTl-68" value="" style="endArrow=none;dashed=1;html=1;rounded=0;strokeWidth=2;exitX=0.003;exitY=0.653;exitDx=0;exitDy=0;exitPerimeter=0;entryX=1.002;entryY=0.642;entryDx=0;entryDy=0;entryPerimeter=0;" edge="1" parent="1">
          <mxGeometry width="50" height="50" relative="1" as="geometry">
            <mxPoint x="-200" y="620" as="sourcePoint" />
            <mxPoint x="431" y="622" as="targetPoint" />
          </mxGeometry>
        </mxCell>
        <mxCell id="xNlqgEtzLe3WfWEDsrTl-69" value="" style="html=1;points=[[0,0,0,0,5],[0,1,0,0,-5],[1,0,0,0,5],[1,1,0,0,-5]];perimeter=orthogonalPerimeter;outlineConnect=0;targetShapes=umlLifeline;portConstraint=eastwest;newEdgeStyle={&quot;curved&quot;:0,&quot;rounded&quot;:0};" vertex="1" parent="1">
          <mxGeometry x="130" y="325" width="10" height="25" as="geometry" />
        </mxCell>
        <mxCell id="xNlqgEtzLe3WfWEDsrTl-70" value="&lt;font style=&quot;font-size: 9px;&quot;&gt;8 : checkDeadline()&lt;/font&gt;" style="html=1;align=left;spacingLeft=2;endArrow=block;rounded=0;edgeStyle=orthogonalEdgeStyle;curved=0;rounded=0;" edge="1" parent="1" target="xNlqgEtzLe3WfWEDsrTl-69">
          <mxGeometry relative="1" as="geometry">
            <mxPoint x="135" y="310" as="sourcePoint" />
            <Array as="points">
              <mxPoint x="160" y="310" />
              <mxPoint x="160" y="325" />
            </Array>
          </mxGeometry>
        </mxCell>
      </root>
    </mxGraphModel>
  </diagram>
</mxfile>
